<?xml version="1.0" encoding="UTF-8"?>
<svg id="Capa_2" data-name="Capa 2" xmlns="http://www.w3.org/2000/svg" viewBox="0 0 78.34 78.34">
  <defs>
    <style>
      .cls-1 {
        fill: #32169b;
      }

      .cls-2 {
        fill: #fff;
      }
    </style>
  </defs>
  <g id="Capa_1-2" data-name="Capa 1">
    <g>
      <rect class="cls-1" width="78.34" height="78.34"/>
      <g>
        <path class="cls-2" d="M19.58,9.79h0c5.41,0,9.79,4.38,9.79,9.79v9.79s-9.79,0-9.79,0c-5.41,0-9.79-4.38-9.79-9.79h0c0-5.41,4.38-9.79,9.79-9.79Z"/>
        <path class="cls-2" d="M58.76,9.79h0c5.41,0,9.79,4.38,9.79,9.79h0c0,5.41-4.38,9.79-9.79,9.79h-9.79s0-9.79,0-9.79c0-5.41,4.38-9.79,9.79-9.79Z"/>
        <rect class="cls-2" x="29.38" y="29.38" width="19.59" height="19.59" rx="9.79" ry="9.79"/>
        <path class="cls-2" d="M19.58,48.97h9.79s0,9.79,0,9.79c0,5.41-4.38,9.79-9.79,9.79h0c-5.41,0-9.79-4.38-9.79-9.79h0c0-5.41,4.38-9.79,9.79-9.79Z"/>
        <path class="cls-2" d="M48.97,48.97h9.79c5.41,0,9.79,4.38,9.79,9.79h0c0,5.41-4.38,9.79-9.79,9.79h0c-5.41,0-9.79-4.38-9.79-9.79v-9.79Z"/>
      </g>
    </g>
  </g>
</svg>