<?xml version="1.0" encoding="UTF-8"?>
<svg id="Capa_2" data-name="Capa 2" xmlns="http://www.w3.org/2000/svg" viewBox="0 0 78.34 78.34">
  <defs>
    <style>
      .cls-1 {
        fill: #32169b;
      }

      .cls-2 {
        fill: #fff;
      }
    </style>
  </defs>
  <g id="Capa_1-2" data-name="Capa 1">
    <g>
      <rect class="cls-1" width="78.34" height="78.34"/>
      <g>
        <path class="cls-2" d="M48.97,9.79h19.59v19.59h0c-10.82,0-19.59-8.77-19.59-19.59h0Z"/>
        <g>
          <path class="cls-2" d="M9.79,29.38v19.59h0s0,0,0,0h0c0,10.82,8.77,19.59,19.58,19.59v-.02.02h39.18c0-10.82-8.77-19.59-19.59-19.59h0s0,0,0,0h0s0,0,0,0h0c0-10.82-8.77-19.59-19.59-19.59"/>
          <path class="cls-2" d="M29.37,29.37c0-10.82-8.77-19.59-19.58-19.59v19.59"/>
        </g>
      </g>
    </g>
  </g>
</svg>