<?xml version="1.0" encoding="UTF-8"?>
<svg id="Capa_2" data-name="Capa 2" xmlns="http://www.w3.org/2000/svg" viewBox="0 0 78.34 78.34">
  <defs>
    <style>
      .cls-1 {
        fill: #fff;
      }

      .cls-2 {
        fill: #318fff;
      }
    </style>
  </defs>
  <g id="Capa_1-2" data-name="Capa 1">
    <g>
      <rect class="cls-2" width="78.34" height="78.34"/>
      <g>
        <path class="cls-1" d="M9.79,9.79v19.59h19.59c0-10.82-8.77-19.59-19.59-19.59Z"/>
        <path class="cls-1" d="M29.38,29.37h19.59V9.79c-10.82,0-19.59,8.77-19.59,19.59Z"/>
        <path class="cls-1" d="M68.55,29.38h-19.59v19.59c10.82,0,19.59-8.77,19.59-19.59Z"/>
        <path class="cls-1" d="M48.97,48.97v19.59h19.59c0-10.82-8.77-19.59-19.59-19.59Z"/>
        <path class="cls-1" d="M29.38,48.97h0s0,0,0,0h0s0,0,0,0c0-10.82-8.77-19.59-19.59-19.59v19.59h0,0c0,10.82,8.77,19.59,19.59,19.59h0s0,0,0,0h19.59c0-10.82-8.77-19.59-19.59-19.59Z"/>
      </g>
    </g>
  </g>
</svg>