<?xml version="1.0" encoding="UTF-8"?>
<svg id="Capa_2" data-name="Capa 2" xmlns="http://www.w3.org/2000/svg" viewBox="0 0 78.34 78.34">
  <defs>
    <style>
      .cls-1 {
        fill: #55c98f;
      }

      .cls-2 {
        fill: #fff;
      }
    </style>
  </defs>
  <g id="Capa_1-2" data-name="Capa 1">
    <g>
      <rect class="cls-1" width="78.34" height="78.34"/>
      <g>
        <path class="cls-2" d="M58.37,41.48l-2.1-2.1,2.51-2.51c.85.46,1.74.78,2.68.78,1.45,0,2.91-.56,4.02-1.66,2.21-2.22,2.21-5.82,0-8.04-2.22-2.21-5.81-2.21-8.04,0-1.82,1.82-2.06,4.55-.88,6.7l-2.51,2.51-2.57-2.57c1.17-2.16.93-4.88-.88-6.7-2.23-2.21-5.82-2.21-8.04,0-2.21,2.22-2.21,5.82,0,8.04,1.11,1.11,2.57,1.66,4.02,1.66.94,0,1.84-.32,2.68-.78l2.57,2.57-2.16,2.16c-2.16-1.18-4.88-.94-6.7.88-2.21,2.22-2.21,5.82,0,8.04,1.11,1.11,2.57,1.66,4.02,1.66s2.9-.56,4.02-1.66c1.82-1.82,2.06-4.54.88-6.7l2.16-2.16,2.1,2.1c-1.17,2.16-.94,4.88.88,6.7,1.11,1.11,2.57,1.66,4.02,1.66s2.91-.56,4.02-1.66c2.21-2.22,2.21-5.82,0-8.04-1.82-1.82-4.54-2.06-6.7-.88Z"/>
        <path class="cls-2" d="M34.73,42.42c-1.82-1.82-4.54-2.06-6.7-.88l-2.14-2.14,2.59-2.59c.85.46,1.74.78,2.68.78,1.45,0,2.91-.56,4.02-1.66,2.21-2.22,2.21-5.82,0-8.04-2.22-2.21-5.81-2.21-8.04,0-1.82,1.82-2.06,4.55-.88,6.7l-2.59,2.59-2.54-2.54c1.17-2.16.94-4.88-.88-6.7-2.23-2.21-5.82-2.21-8.04,0-2.21,2.22-2.21,5.82,0,8.04,1.11,1.11,2.57,1.66,4.02,1.66.93,0,1.83-.32,2.68-.78l2.54,2.54-2.08,2.08c-2.16-1.18-4.88-.94-6.7.88-2.21,2.22-2.21,5.82,0,8.04,1.11,1.11,2.57,1.66,4.02,1.66s2.9-.56,4.02-1.66c1.82-1.82,2.06-4.54.88-6.7l2.08-2.08,2.14,2.14c-1.17,2.16-.93,4.88.88,6.7,1.11,1.11,2.57,1.66,4.02,1.66s2.91-.56,4.02-1.66c2.21-2.22,2.21-5.82,0-8.04Z"/>
        <path class="cls-2" d="M38.85,21.29c1.45,0,2.91-.55,4.02-1.66,1.07-1.07,1.67-2.5,1.67-4.02s-.59-2.94-1.67-4.02c-2.21-2.21-5.81-2.21-8.04,0-2.21,2.22-2.21,5.82,0,8.04,1.11,1.11,2.57,1.66,4.02,1.66Z"/>
        <path class="cls-2" d="M34.83,58.71c-2.21,2.21-2.21,5.82,0,8.04,1.11,1.11,2.57,1.66,4.02,1.66s2.91-.55,4.02-1.66c1.08-1.08,1.67-2.5,1.67-4.02s-.59-2.94-1.67-4.01c-2.15-2.15-5.89-2.15-8.04,0Z"/>
      </g>
    </g>
  </g>
</svg>